<svg width="108" height="74" viewBox="0 0 108 74" fill="none" xmlns="http://www.w3.org/2000/svg">
<rect width="20.5061" height="20.5061" rx="3" transform="matrix(-0.707107 -0.707107 -0.707107 0.707107 69 14.5)" fill="#262525"/>
<circle r="8.30424" transform="matrix(-1 0 0 1 54.4682 14.5)" fill="#FCFCFC"/>
<rect width="10.4541" height="10.4541" rx="3" transform="matrix(-1 0 0 1 59.6582 9.30994)" fill="#262525"/>
<ellipse rx="3.61877" ry="3.61872" transform="matrix(-1 0 0 1 54.4818 14.4857)" fill="#FCFCFC"/>
<rect width="2.34562" height="2.34562" rx="1" transform="matrix(-0.707081 -0.707133 -0.707081 0.707133 56.0244 14.5)" fill="#262525"/>
<path d="M12.04 41.696V46H10.68V34.8C11.128 34.8 11.6027 34.7947 12.104 34.784C12.6053 34.7733 13.1067 34.768 13.608 34.768C15.08 34.768 16.136 35.0987 16.776 35.76C17.4267 36.4107 17.752 37.2373 17.752 38.24C17.752 39.2107 17.4 40.0427 16.696 40.736C16.0133 41.4187 15.0213 41.76 13.72 41.76C13.0373 41.76 12.4773 41.7387 12.04 41.696ZM13.736 36.048C13.544 36.048 12.9787 36.0587 12.04 36.08V40.4C12.712 40.4533 13.256 40.48 13.672 40.48C14.4933 40.48 15.1387 40.2827 15.608 39.888C16.0773 39.4827 16.312 38.928 16.312 38.224C16.312 37.5307 16.0933 36.9973 15.656 36.624C15.2293 36.24 14.5893 36.048 13.736 36.048ZM19.411 40.32L19.075 39.296C19.7897 38.8587 20.5897 38.64 21.475 38.64C22.4457 38.64 23.1497 38.88 23.587 39.36C24.0243 39.84 24.243 40.5813 24.243 41.584V46H23.027V45.072C22.4617 45.7653 21.6937 46.112 20.723 46.112C20.0617 46.112 19.5283 45.9147 19.123 45.52C18.7177 45.1147 18.515 44.5707 18.515 43.888C18.515 43.184 18.7657 42.6293 19.267 42.224C19.7683 41.808 20.4243 41.6 21.235 41.6C21.9923 41.6 22.5897 41.7547 23.027 42.064C23.027 41.2533 22.915 40.672 22.691 40.32C22.467 39.968 22.035 39.792 21.395 39.792C20.7443 39.792 20.083 39.968 19.411 40.32ZM21.171 44.96C21.8857 44.96 22.5043 44.6507 23.027 44.032V43.12C22.579 42.8 22.0403 42.64 21.411 42.64C20.9737 42.64 20.6057 42.7467 20.307 42.96C20.019 43.1627 19.875 43.4507 19.875 43.824C19.875 44.176 19.987 44.4533 20.211 44.656C20.4457 44.8587 20.7657 44.96 21.171 44.96ZM28.7704 46.16C28.2264 46.16 27.6504 46.0693 27.0424 45.888C26.4557 45.696 26.0397 45.4613 25.7944 45.184L26.4504 44.224C26.7384 44.4587 27.0797 44.6507 27.4744 44.8C27.8797 44.9387 28.2477 45.008 28.5784 45.008C29.133 45.008 29.5864 44.9013 29.9384 44.688C30.2904 44.464 30.4664 44.176 30.4664 43.824C30.4664 43.5253 30.3384 43.296 30.0824 43.136C29.837 42.976 29.4957 42.896 29.0584 42.896H27.8424V41.856H28.9784C29.341 41.856 29.6397 41.76 29.8744 41.568C30.109 41.3653 30.2264 41.12 30.2264 40.832C30.2264 40.512 30.0877 40.2613 29.8104 40.08C29.533 39.888 29.1597 39.792 28.6904 39.792C27.933 39.792 27.213 40.0587 26.5304 40.592L26.0344 39.6C26.3224 39.3013 26.7224 39.0667 27.2344 38.896C27.757 38.7253 28.3064 38.64 28.8824 38.64C29.7357 38.64 30.397 38.8107 30.8664 39.152C31.3464 39.4933 31.5864 39.968 31.5864 40.576C31.5864 41.408 31.165 41.9733 30.3224 42.272V42.304C30.7917 42.3573 31.1597 42.544 31.4264 42.864C31.693 43.1733 31.8264 43.552 31.8264 44C31.8264 44.6613 31.5437 45.1893 30.9784 45.584C30.4237 45.968 29.6877 46.16 28.7704 46.16ZM35.057 49.2H33.777V38.8H35.057V39.648C35.313 39.3493 35.665 39.1093 36.113 38.928C36.561 38.736 37.025 38.64 37.505 38.64C38.529 38.64 39.3343 38.9813 39.921 39.664C40.529 40.336 40.833 41.2107 40.833 42.288C40.833 43.3867 40.4863 44.3093 39.793 45.056C39.1103 45.792 38.209 46.16 37.089 46.16C36.225 46.16 35.5477 45.9947 35.057 45.664V49.2ZM37.137 39.84C36.2837 39.84 35.5903 40.1707 35.057 40.832V44.4C35.6223 44.7733 36.2623 44.96 36.977 44.96C37.7343 44.96 38.337 44.72 38.785 44.24C39.2437 43.7493 39.473 43.1147 39.473 42.336C39.473 41.5787 39.265 40.976 38.849 40.528C38.433 40.0693 37.8623 39.84 37.137 39.84ZM43.0516 40.32L42.7156 39.296C43.4303 38.8587 44.2303 38.64 45.1156 38.64C46.0863 38.64 46.7903 38.88 47.2276 39.36C47.665 39.84 47.8836 40.5813 47.8836 41.584V46H46.6676V45.072C46.1023 45.7653 45.3343 46.112 44.3636 46.112C43.7023 46.112 43.169 45.9147 42.7636 45.52C42.3583 45.1147 42.1556 44.5707 42.1556 43.888C42.1556 43.184 42.4063 42.6293 42.9076 42.224C43.409 41.808 44.065 41.6 44.8756 41.6C45.633 41.6 46.2303 41.7547 46.6676 42.064C46.6676 41.2533 46.5556 40.672 46.3316 40.32C46.1076 39.968 45.6756 39.792 45.0356 39.792C44.385 39.792 43.7236 39.968 43.0516 40.32ZM44.8116 44.96C45.5263 44.96 46.145 44.6507 46.6676 44.032V43.12C46.2196 42.8 45.681 42.64 45.0516 42.64C44.6143 42.64 44.2463 42.7467 43.9476 42.96C43.6596 43.1627 43.5156 43.4507 43.5156 43.824C43.5156 44.176 43.6276 44.4533 43.8516 44.656C44.0863 44.8587 44.4063 44.96 44.8116 44.96ZM55.595 34.64L56.283 35.648C56.027 36 55.7177 36.24 55.355 36.368C54.9603 36.5067 54.5123 36.6133 54.011 36.688C53.5203 36.7627 53.0563 36.896 52.619 37.088C51.531 37.5893 50.923 38.7467 50.795 40.56H50.827C51.0617 40.0587 51.4403 39.6533 51.963 39.344C52.4963 39.0347 53.067 38.88 53.675 38.88C54.699 38.88 55.5097 39.2053 56.107 39.856C56.715 40.5067 57.019 41.376 57.019 42.464C57.019 43.488 56.6723 44.3627 55.979 45.088C55.2963 45.8027 54.411 46.16 53.323 46.16C52.1497 46.16 51.2217 45.76 50.539 44.96C49.8563 44.1707 49.515 43.0773 49.515 41.68C49.515 38.5653 50.4057 36.6293 52.187 35.872C52.5923 35.6907 53.0617 35.5573 53.595 35.472C54.011 35.3973 54.3097 35.3387 54.491 35.296C54.6723 35.2533 54.8643 35.1787 55.067 35.072C55.2803 34.9653 55.4563 34.8213 55.595 34.64ZM50.875 41.92C50.875 42.8373 51.099 43.5733 51.547 44.128C51.995 44.6827 52.5763 44.96 53.291 44.96C53.9843 44.96 54.5497 44.7253 54.987 44.256C55.435 43.7973 55.659 43.2213 55.659 42.528C55.659 41.792 55.451 41.2 55.035 40.752C54.6297 40.304 54.0697 40.08 53.355 40.08C52.7043 40.08 52.1603 40.2613 51.723 40.624C51.2643 40.9973 50.9817 41.4293 50.875 41.92ZM59.4311 45.104C58.7271 44.3787 58.3751 43.4773 58.3751 42.4C58.3751 41.312 58.7271 40.416 59.4311 39.712C60.1458 38.9973 61.0738 38.64 62.2151 38.64C63.3565 38.64 64.2791 38.9973 64.9831 39.712C65.6978 40.416 66.0551 41.312 66.0551 42.4C66.0551 43.488 65.6978 44.3893 64.9831 45.104C64.2791 45.808 63.3565 46.16 62.2151 46.16C61.0845 46.16 60.1565 45.808 59.4311 45.104ZM60.4391 40.56C59.9698 41.0293 59.7351 41.6427 59.7351 42.4C59.7351 43.1573 59.9645 43.7707 60.4231 44.24C60.8925 44.72 61.4898 44.96 62.2151 44.96C62.9405 44.96 63.5325 44.7253 63.9911 44.256C64.4605 43.776 64.6951 43.1573 64.6951 42.4C64.6951 41.664 64.4605 41.0507 63.9911 40.56C63.5325 40.08 62.9405 39.84 62.2151 39.84C61.4898 39.84 60.8978 40.08 60.4391 40.56ZM69.3488 40.08H66.7088V38.8H73.2688V40.08H70.6288V46H69.3488V40.08ZM75.0516 40.32L74.7156 39.296C75.4303 38.8587 76.2303 38.64 77.1156 38.64C78.0863 38.64 78.7903 38.88 79.2276 39.36C79.665 39.84 79.8836 40.5813 79.8836 41.584V46H78.6676V45.072C78.1023 45.7653 77.3343 46.112 76.3636 46.112C75.7023 46.112 75.169 45.9147 74.7636 45.52C74.3583 45.1147 74.1556 44.5707 74.1556 43.888C74.1556 43.184 74.4063 42.6293 74.9076 42.224C75.409 41.808 76.065 41.6 76.8756 41.6C77.633 41.6 78.2303 41.7547 78.6676 42.064C78.6676 41.2533 78.5556 40.672 78.3316 40.32C78.1076 39.968 77.6756 39.792 77.0356 39.792C76.385 39.792 75.7236 39.968 75.0516 40.32ZM76.8116 44.96C77.5263 44.96 78.145 44.6507 78.6676 44.032V43.12C78.2196 42.8 77.681 42.64 77.0516 42.64C76.6143 42.64 76.2463 42.7467 75.9476 42.96C75.6596 43.1627 75.5156 43.4507 75.5156 43.824C75.5156 44.176 75.6276 44.4533 75.8516 44.656C76.0863 44.8587 76.4063 44.96 76.8116 44.96ZM88.587 46H87.307V42.96H83.307V46H82.027V38.8H83.307V41.76H87.307V38.8H88.587V46ZM91.478 45.104C90.774 44.3787 90.422 43.4773 90.422 42.4C90.422 41.312 90.774 40.416 91.478 39.712C92.1927 38.9973 93.1207 38.64 94.262 38.64C95.4033 38.64 96.326 38.9973 97.03 39.712C97.7447 40.416 98.102 41.312 98.102 42.4C98.102 43.488 97.7447 44.3893 97.03 45.104C96.326 45.808 95.4033 46.16 94.262 46.16C93.1313 46.16 92.2033 45.808 91.478 45.104ZM92.486 40.56C92.0167 41.0293 91.782 41.6427 91.782 42.4C91.782 43.1573 92.0113 43.7707 92.47 44.24C92.9393 44.72 93.5367 44.96 94.262 44.96C94.9873 44.96 95.5793 44.7253 96.038 44.256C96.5073 43.776 96.742 43.1573 96.742 42.4C96.742 41.664 96.5073 41.0507 96.038 40.56C95.5793 40.08 94.9873 39.84 94.262 39.84C93.5367 39.84 92.9447 40.08 92.486 40.56Z" fill="#A4A7B1"/>
<path d="M3.52 62.808V67H1.552V55.8C2.10667 55.8 2.70933 55.7947 3.36 55.784C4.01067 55.7733 4.544 55.768 4.96 55.768C7.66933 55.768 9.024 56.92 9.024 59.224C9.024 60.0773 8.80533 60.7813 8.368 61.336C7.93067 61.8693 7.42933 62.232 6.864 62.424L10.368 67H7.984L4.896 62.808H3.52ZM4.864 57.608C4.81067 57.608 4.72533 57.6133 4.608 57.624C4.49067 57.624 4.32533 57.6293 4.112 57.64C3.89867 57.64 3.70133 57.64 3.52 57.64V60.968H4.8C5.42933 60.968 5.94133 60.8133 6.336 60.504C6.74133 60.1947 6.944 59.7733 6.944 59.24C6.944 58.152 6.25067 57.608 4.864 57.608ZM16.547 64.984L17.075 66.28C16.3603 66.8773 15.443 67.176 14.323 67.176C13.171 67.176 12.2323 66.8293 11.507 66.136C10.803 65.4533 10.451 64.5413 10.451 63.4C10.451 62.3333 10.7977 61.4373 11.491 60.712C12.1843 59.9867 13.107 59.624 14.259 59.624C15.2083 59.624 16.0137 59.9387 16.675 60.568C17.3363 61.1973 17.667 61.9973 17.667 62.968C17.667 63.3947 17.6297 63.7253 17.555 63.96H12.355C12.4297 64.4827 12.659 64.8933 13.043 65.192C13.4377 65.4907 13.9283 65.64 14.515 65.64C15.315 65.64 15.9923 65.4213 16.547 64.984ZM14.179 61.16C13.1337 61.16 12.5043 61.6827 12.291 62.728H15.827C15.8377 62.2693 15.6883 61.896 15.379 61.608C15.0803 61.3093 14.6803 61.16 14.179 61.16ZM26.0141 70.2H24.1741V66.632C23.6195 66.9947 23.0275 67.176 22.3981 67.176C21.2568 67.176 20.3448 66.8347 19.6621 66.152C18.9901 65.4587 18.6541 64.5413 18.6541 63.4C18.6541 62.3227 19.0435 61.4267 19.8221 60.712C20.6115 59.9867 21.5981 59.624 22.7821 59.624C24.0195 59.624 25.0968 59.912 26.0141 60.488V70.2ZM22.6381 65.464C23.2568 65.464 23.7688 65.2453 24.1741 64.808V61.704C23.6941 61.4693 23.2248 61.352 22.7661 61.352C22.1048 61.352 21.5821 61.5547 21.1981 61.96C20.8141 62.3547 20.6221 62.8613 20.6221 63.48C20.6221 64.056 20.8035 64.5307 21.1661 64.904C21.5395 65.2773 22.0301 65.464 22.6381 65.464ZM32.7116 59.8H34.5516V67H32.7116V66.12C32.1356 66.824 31.3676 67.176 30.4076 67.176C29.6396 67.176 29.0263 66.92 28.5676 66.408C28.109 65.896 27.8796 65.16 27.8796 64.2V59.8H29.7196V63.816C29.7196 64.9147 30.1783 65.464 31.0956 65.464C31.725 65.464 32.2636 65.1707 32.7116 64.584V59.8ZM42.2501 64.984L42.7781 66.28C42.0635 66.8773 41.1461 67.176 40.0261 67.176C38.8741 67.176 37.9355 66.8293 37.2101 66.136C36.5061 65.4533 36.1541 64.5413 36.1541 63.4C36.1541 62.3333 36.5008 61.4373 37.1941 60.712C37.8875 59.9867 38.8101 59.624 39.9621 59.624C40.9115 59.624 41.7168 59.9387 42.3781 60.568C43.0395 61.1973 43.3701 61.9973 43.3701 62.968C43.3701 63.3947 43.3328 63.7253 43.2581 63.96H38.0581C38.1328 64.4827 38.3621 64.8933 38.7461 65.192C39.1408 65.4907 39.6315 65.64 40.2181 65.64C41.0181 65.64 41.6955 65.4213 42.2501 64.984ZM39.8821 61.16C38.8368 61.16 38.2075 61.6827 37.9941 62.728H41.5301C41.5408 62.2693 41.3915 61.896 41.0821 61.608C40.7835 61.3093 40.3835 61.16 39.8821 61.16ZM44.6121 61.816C44.6121 61.144 44.8575 60.6107 45.3481 60.216C45.8388 59.8213 46.4735 59.624 47.2521 59.624C48.4255 59.624 49.3375 59.928 49.9881 60.536L49.3001 61.848C48.7135 61.3893 48.0628 61.16 47.3481 61.16C47.0921 61.16 46.8788 61.224 46.7081 61.352C46.5375 61.4693 46.4521 61.6133 46.4521 61.784C46.4521 62.136 46.9055 62.4293 47.8121 62.664C48.1428 62.7387 48.4361 62.824 48.6921 62.92C48.9481 63.0053 49.2095 63.1333 49.4761 63.304C49.7535 63.464 49.9668 63.6773 50.1161 63.944C50.2655 64.2107 50.3401 64.52 50.3401 64.872C50.3401 65.576 50.0735 66.136 49.5401 66.552C49.0175 66.968 48.3135 67.176 47.4281 67.176C46.7988 67.176 46.1855 67.0427 45.5881 66.776C44.9801 66.4987 44.5908 66.2213 44.4201 65.944L45.3161 64.744C45.5188 64.9893 45.8548 65.1973 46.3241 65.368C46.8041 65.5493 47.2148 65.64 47.5561 65.64C47.9721 65.6827 48.2655 65.5493 48.4361 65.24C48.6068 64.92 48.4948 64.6587 48.1001 64.456C47.9401 64.3707 47.6895 64.28 47.3481 64.184C47.0175 64.088 46.7081 63.992 46.4201 63.896C46.1428 63.7893 45.8548 63.656 45.5561 63.496C45.2681 63.336 45.0388 63.1173 44.8681 62.84C44.6975 62.552 44.6121 62.2107 44.6121 61.816ZM51.8015 64.264V57.8H53.6415V59.8H55.9615V61.528H53.6415V64.152C53.6415 65.016 53.9295 65.448 54.5055 65.448C54.8682 65.448 55.2362 65.3093 55.6095 65.032L56.1695 66.456C55.5828 66.9253 54.8735 67.16 54.0415 67.16C53.2628 67.16 52.6922 66.9253 52.3295 66.456C51.9775 65.976 51.8015 65.2453 51.8015 64.264ZM62.2169 67H62.0729V55.8H62.2489C62.7075 55.8 63.1342 55.7947 63.5289 55.784C64.3182 55.7627 64.7875 55.752 64.9369 55.752C66.0142 55.752 66.9635 55.9013 67.7849 56.2C68.6169 56.488 69.2782 56.8933 69.7689 57.416C70.2595 57.928 70.6222 58.5093 70.8569 59.16C71.1022 59.8 71.2249 60.4933 71.2249 61.24C71.2249 62.9253 70.6649 64.312 69.5449 65.4C68.4355 66.488 66.8569 67.032 64.8089 67.032C64.3502 67.032 63.9289 67.0267 63.5449 67.016C63.1609 67.0053 62.7182 67 62.2169 67ZM64.9049 56.584C64.6702 56.584 64.3235 56.5947 63.8649 56.616C63.4169 56.6267 63.1129 56.632 62.9529 56.632V66.168C63.3049 66.168 63.6355 66.1733 63.9449 66.184C64.2542 66.184 64.4782 66.1893 64.6169 66.2C64.7555 66.2 64.8302 66.2 64.8409 66.2C66.5795 66.2 67.9235 65.7413 68.8729 64.824C69.8222 63.896 70.2969 62.7013 70.2969 61.24C70.2969 59.864 69.8435 58.744 68.9369 57.88C68.0195 57.016 66.6755 56.584 64.9049 56.584ZM78.9756 65.48L79.2476 66.12C78.597 66.8027 77.7116 67.144 76.5916 67.144C75.4396 67.144 74.517 66.8027 73.8236 66.12C73.1196 65.4373 72.7676 64.5307 72.7676 63.4C72.7676 62.312 73.0876 61.416 73.7276 60.712C74.3783 60.008 75.2743 59.656 76.4156 59.656C77.3436 59.656 78.1223 59.9547 78.7516 60.552C79.3703 61.1387 79.6796 61.9227 79.6796 62.904C79.6796 63.16 79.6636 63.384 79.6316 63.576H73.6956C73.7276 64.44 74.0103 65.1227 74.5436 65.624C75.077 66.1147 75.7756 66.36 76.6396 66.36C77.6423 66.36 78.421 66.0667 78.9756 65.48ZM76.3356 60.44C75.5676 60.44 74.9436 60.664 74.4636 61.112C73.9943 61.56 73.7223 62.152 73.6476 62.888H78.8316C78.821 62.1307 78.5916 61.5333 78.1436 61.096C77.6956 60.6587 77.093 60.44 76.3356 60.44ZM85.3983 65.112C85.3983 64.7813 85.2596 64.5147 84.9823 64.312C84.7156 64.1093 84.3849 63.9493 83.9903 63.832C83.6063 63.7147 83.2169 63.5867 82.8223 63.448C82.4276 63.2987 82.0916 63.0693 81.8143 62.76C81.5476 62.44 81.4143 62.04 81.4143 61.56C81.4143 60.984 81.6276 60.5253 82.0543 60.184C82.4809 59.832 83.0409 59.656 83.7343 59.656C84.7263 59.656 85.4783 59.9227 85.9903 60.456L85.6383 61.08C85.1476 60.6213 84.5183 60.392 83.7503 60.392C83.3236 60.392 82.9716 60.504 82.6943 60.728C82.4276 60.9413 82.2943 61.2133 82.2943 61.544C82.2943 61.8853 82.4276 62.168 82.6943 62.392C82.9716 62.6053 83.3023 62.776 83.6863 62.904C84.0809 63.0213 84.4756 63.1493 84.8703 63.288C85.2649 63.4267 85.5956 63.6453 85.8623 63.944C86.1396 64.2427 86.2783 64.6213 86.2783 65.08C86.2783 65.7307 86.0329 66.2373 85.5423 66.6C85.0623 66.9627 84.4436 67.144 83.6863 67.144C83.2169 67.144 82.7263 67.0373 82.2143 66.824C81.7343 66.6213 81.4036 66.3813 81.2223 66.104L81.6863 65.56C81.8889 65.8053 82.1929 66.008 82.5983 66.168C83.0143 66.328 83.4089 66.408 83.7823 66.408C84.2516 66.408 84.6356 66.296 84.9343 66.072C85.2436 65.8373 85.3983 65.5173 85.3983 65.112ZM89.5898 67H88.7578V59.8H89.5898V67ZM88.6138 57C88.6138 56.84 88.6724 56.712 88.7898 56.616C88.9071 56.52 89.0458 56.472 89.2057 56.472C89.3444 56.472 89.4671 56.5253 89.5738 56.632C89.6911 56.728 89.7498 56.8507 89.7498 57C89.7498 57.1813 89.6964 57.3253 89.5898 57.432C89.4938 57.5387 89.3657 57.592 89.2057 57.592C89.0351 57.592 88.8911 57.5387 88.7738 57.432C88.6671 57.3253 88.6138 57.1813 88.6138 57ZM91.4896 68.056C91.4896 67.512 91.6816 67.0533 92.0656 66.68C92.4496 66.3067 92.9936 66.0453 93.6976 65.896C93.5376 65.704 93.4576 65.4747 93.4576 65.208C93.4576 64.9413 93.5483 64.7013 93.7296 64.488C93.2603 64.2853 92.8923 63.9813 92.6256 63.576C92.359 63.1707 92.2256 62.712 92.2256 62.2C92.2256 61.464 92.487 60.856 93.0096 60.376C93.5323 59.896 94.2203 59.656 95.0736 59.656C95.7563 59.656 96.359 59.8373 96.8816 60.2H96.8976L98.9456 59.656V60.44L97.4896 60.808C97.7776 61.2453 97.9216 61.7093 97.9216 62.2C97.9216 62.9147 97.655 63.5227 97.1216 64.024C96.5883 64.504 95.9056 64.744 95.0736 64.744C94.775 64.744 94.535 64.7227 94.3536 64.68C94.2576 64.8187 94.2096 64.9947 94.2096 65.208C94.2096 65.4533 94.279 65.6453 94.4176 65.784C94.823 65.7627 95.047 65.752 95.0896 65.752C96.1883 65.752 97.063 65.9547 97.7136 66.36C98.3643 66.7653 98.6896 67.3307 98.6896 68.056C98.6896 68.7707 98.3643 69.3253 97.7136 69.72C97.063 70.1253 96.1883 70.328 95.0896 70.328C93.9803 70.328 93.1003 70.1307 92.4496 69.736C91.8096 69.3413 91.4896 68.7813 91.4896 68.056ZM92.3376 68.056C92.3376 68.5253 92.583 68.8933 93.0736 69.16C93.575 69.4373 94.247 69.576 95.0896 69.576C95.9216 69.576 96.5883 69.4373 97.0896 69.16C97.591 68.8827 97.8416 68.5147 97.8416 68.056C97.8416 67.5867 97.591 67.2133 97.0896 66.936C96.599 66.648 95.9323 66.504 95.0896 66.504C94.2576 66.504 93.591 66.6427 93.0896 66.92C92.5883 67.1973 92.3376 67.576 92.3376 68.056ZM93.6336 60.92C93.2603 61.2613 93.0736 61.688 93.0736 62.2C93.0736 62.712 93.2603 63.1387 93.6336 63.48C94.007 63.8213 94.487 63.992 95.0736 63.992C95.6603 63.992 96.1403 63.8213 96.5136 63.48C96.887 63.1387 97.0736 62.712 97.0736 62.2C97.0736 61.688 96.8816 61.2613 96.4976 60.92C96.1243 60.5787 95.6496 60.408 95.0736 60.408C94.5083 60.408 94.0283 60.5787 93.6336 60.92ZM101.205 67H100.373V59.8H101.205V60.808C101.504 60.4773 101.888 60.2053 102.357 59.992C102.837 59.7787 103.317 59.672 103.797 59.672C104.8 59.672 105.552 59.9333 106.053 60.456C106.555 60.9787 106.805 61.7893 106.805 62.888V67H105.973V63.048C105.973 61.32 105.184 60.456 103.605 60.456C103.147 60.456 102.699 60.5627 102.261 60.776C101.824 60.9787 101.472 61.24 101.205 61.56V67Z" fill="#262525"/>
</svg>
