<svg width="257" height="29" viewBox="0 0 257 29" fill="none" xmlns="http://www.w3.org/2000/svg">
<rect width="20.5061" height="20.5061" rx="3" transform="matrix(-0.707107 -0.707107 -0.707107 0.707107 139 14.5)" fill="#262525"/>
<circle r="8.30424" transform="matrix(-1 0 0 1 124.468 14.5)" fill="#FCFCFC"/>
<rect width="10.4541" height="10.4541" rx="3" transform="matrix(-1 0 0 1 129.658 9.31006)" fill="#262525"/>
<ellipse rx="3.61877" ry="3.61872" transform="matrix(-1 0 0 1 124.482 14.4857)" fill="#FCFCFC"/>
<rect width="2.34562" height="2.34562" rx="1" transform="matrix(-0.707081 -0.707133 -0.707081 0.707133 126.024 14.5)" fill="#262525"/>
<path d="M3.04 14.6945V18.9985H1.68V7.79853C2.128 7.79853 2.60267 7.7932 3.104 7.78253C3.60533 7.77187 4.10667 7.76653 4.608 7.76653C6.08 7.76653 7.136 8.0972 7.776 8.75853C8.42667 9.4092 8.752 10.2359 8.752 11.2385C8.752 12.2092 8.4 13.0412 7.696 13.7345C7.01333 14.4172 6.02133 14.7585 4.72 14.7585C4.03733 14.7585 3.47733 14.7372 3.04 14.6945ZM4.736 9.04653C4.544 9.04653 3.97867 9.0572 3.04 9.07854V13.3985C3.712 13.4519 4.256 13.4785 4.672 13.4785C5.49333 13.4785 6.13867 13.2812 6.608 12.8865C7.07733 12.4812 7.312 11.9265 7.312 11.2225C7.312 10.5292 7.09333 9.99587 6.656 9.62253C6.22933 9.23853 5.58933 9.04653 4.736 9.04653ZM10.411 13.3185L10.075 12.2945C10.7897 11.8572 11.5897 11.6385 12.475 11.6385C13.4457 11.6385 14.1497 11.8785 14.587 12.3585C15.0243 12.8385 15.243 13.5799 15.243 14.5825V18.9985H14.027V18.0705C13.4617 18.7639 12.6937 19.1105 11.723 19.1105C11.0617 19.1105 10.5283 18.9132 10.123 18.5185C9.71767 18.1132 9.515 17.5692 9.515 16.8865C9.515 16.1825 9.76567 15.6279 10.267 15.2225C10.7683 14.8065 11.4243 14.5985 12.235 14.5985C12.9923 14.5985 13.5897 14.7532 14.027 15.0625C14.027 14.2519 13.915 13.6705 13.691 13.3185C13.467 12.9665 13.035 12.7905 12.395 12.7905C11.7443 12.7905 11.083 12.9665 10.411 13.3185ZM12.171 17.9585C12.8857 17.9585 13.5043 17.6492 14.027 17.0305V16.1185C13.579 15.7985 13.0403 15.6385 12.411 15.6385C11.9737 15.6385 11.6057 15.7452 11.307 15.9585C11.019 16.1612 10.875 16.4492 10.875 16.8225C10.875 17.1745 10.987 17.4519 11.211 17.6545C11.4457 17.8572 11.7657 17.9585 12.171 17.9585ZM19.7704 19.1585C19.2264 19.1585 18.6504 19.0679 18.0424 18.8865C17.4557 18.6945 17.0397 18.4599 16.7944 18.1825L17.4504 17.2225C17.7384 17.4572 18.0797 17.6492 18.4744 17.7985C18.8797 17.9372 19.2477 18.0065 19.5784 18.0065C20.133 18.0065 20.5864 17.8999 20.9384 17.6865C21.2904 17.4625 21.4664 17.1745 21.4664 16.8225C21.4664 16.5239 21.3384 16.2945 21.0824 16.1345C20.837 15.9745 20.4957 15.8945 20.0584 15.8945H18.8424V14.8545H19.9784C20.341 14.8545 20.6397 14.7585 20.8744 14.5665C21.109 14.3639 21.2264 14.1185 21.2264 13.8305C21.2264 13.5105 21.0877 13.2599 20.8104 13.0785C20.533 12.8865 20.1597 12.7905 19.6904 12.7905C18.933 12.7905 18.213 13.0572 17.5304 13.5905L17.0344 12.5985C17.3224 12.2999 17.7224 12.0652 18.2344 11.8945C18.757 11.7239 19.3064 11.6385 19.8824 11.6385C20.7357 11.6385 21.397 11.8092 21.8664 12.1505C22.3464 12.4919 22.5864 12.9665 22.5864 13.5745C22.5864 14.4065 22.165 14.9719 21.3224 15.2705V15.3025C21.7917 15.3559 22.1597 15.5425 22.4264 15.8625C22.693 16.1719 22.8264 16.5505 22.8264 16.9985C22.8264 17.6599 22.5437 18.1879 21.9784 18.5825C21.4237 18.9665 20.6877 19.1585 19.7704 19.1585ZM26.057 22.1985H24.777V11.7985H26.057V12.6465C26.313 12.3479 26.665 12.1079 27.113 11.9265C27.561 11.7345 28.025 11.6385 28.505 11.6385C29.529 11.6385 30.3343 11.9799 30.921 12.6625C31.529 13.3345 31.833 14.2092 31.833 15.2865C31.833 16.3852 31.4863 17.3079 30.793 18.0545C30.1103 18.7905 29.209 19.1585 28.089 19.1585C27.225 19.1585 26.5477 18.9932 26.057 18.6625V22.1985ZM28.137 12.8385C27.2837 12.8385 26.5903 13.1692 26.057 13.8305V17.3985C26.6223 17.7719 27.2623 17.9585 27.977 17.9585C28.7343 17.9585 29.337 17.7185 29.785 17.2385C30.2437 16.7479 30.473 16.1132 30.473 15.3345C30.473 14.5772 30.265 13.9745 29.849 13.5265C29.433 13.0679 28.8623 12.8385 28.137 12.8385ZM34.0516 13.3185L33.7156 12.2945C34.4303 11.8572 35.2303 11.6385 36.1156 11.6385C37.0863 11.6385 37.7903 11.8785 38.2276 12.3585C38.665 12.8385 38.8836 13.5799 38.8836 14.5825V18.9985H37.6676V18.0705C37.1023 18.7639 36.3343 19.1105 35.3636 19.1105C34.7023 19.1105 34.169 18.9132 33.7636 18.5185C33.3583 18.1132 33.1556 17.5692 33.1556 16.8865C33.1556 16.1825 33.4063 15.6279 33.9076 15.2225C34.409 14.8065 35.065 14.5985 35.8756 14.5985C36.633 14.5985 37.2303 14.7532 37.6676 15.0625C37.6676 14.2519 37.5556 13.6705 37.3316 13.3185C37.1076 12.9665 36.6756 12.7905 36.0356 12.7905C35.385 12.7905 34.7236 12.9665 34.0516 13.3185ZM35.8116 17.9585C36.5263 17.9585 37.145 17.6492 37.6676 17.0305V16.1185C37.2196 15.7985 36.681 15.6385 36.0516 15.6385C35.6143 15.6385 35.2463 15.7452 34.9476 15.9585C34.6596 16.1612 34.5156 16.4492 34.5156 16.8225C34.5156 17.1745 34.6276 17.4519 34.8516 17.6545C35.0863 17.8572 35.4063 17.9585 35.8116 17.9585ZM46.595 7.63853L47.283 8.64653C47.027 8.99853 46.7177 9.23853 46.355 9.36653C45.9603 9.5052 45.5123 9.61187 45.011 9.68653C44.5203 9.7612 44.0563 9.89453 43.619 10.0865C42.531 10.5879 41.923 11.7452 41.795 13.5585H41.827C42.0617 13.0572 42.4403 12.6519 42.963 12.3425C43.4963 12.0332 44.067 11.8785 44.675 11.8785C45.699 11.8785 46.5097 12.2039 47.107 12.8545C47.715 13.5052 48.019 14.3745 48.019 15.4625C48.019 16.4865 47.6723 17.3612 46.979 18.0865C46.2963 18.8012 45.411 19.1585 44.323 19.1585C43.1497 19.1585 42.2217 18.7585 41.539 17.9585C40.8563 17.1692 40.515 16.0759 40.515 14.6785C40.515 11.5639 41.4057 9.62787 43.187 8.87053C43.5923 8.6892 44.0617 8.55587 44.595 8.47053C45.011 8.39587 45.3097 8.3372 45.491 8.29453C45.6723 8.25187 45.8643 8.1772 46.067 8.07053C46.2803 7.96387 46.4563 7.81987 46.595 7.63853ZM41.875 14.9185C41.875 15.8359 42.099 16.5719 42.547 17.1265C42.995 17.6812 43.5763 17.9585 44.291 17.9585C44.9843 17.9585 45.5497 17.7239 45.987 17.2545C46.435 16.7959 46.659 16.2199 46.659 15.5265C46.659 14.7905 46.451 14.1985 46.035 13.7505C45.6297 13.3025 45.0697 13.0785 44.355 13.0785C43.7043 13.0785 43.1603 13.2599 42.723 13.6225C42.2643 13.9959 41.9817 14.4279 41.875 14.9185ZM50.4311 18.1025C49.7271 17.3772 49.3751 16.4759 49.3751 15.3985C49.3751 14.3105 49.7271 13.4145 50.4311 12.7105C51.1458 11.9959 52.0738 11.6385 53.2151 11.6385C54.3565 11.6385 55.2791 11.9959 55.9831 12.7105C56.6978 13.4145 57.0551 14.3105 57.0551 15.3985C57.0551 16.4865 56.6978 17.3879 55.9831 18.1025C55.2791 18.8065 54.3565 19.1585 53.2151 19.1585C52.0845 19.1585 51.1565 18.8065 50.4311 18.1025ZM51.4391 13.5585C50.9698 14.0279 50.7351 14.6412 50.7351 15.3985C50.7351 16.1559 50.9645 16.7692 51.4231 17.2385C51.8925 17.7185 52.4898 17.9585 53.2151 17.9585C53.9405 17.9585 54.5325 17.7239 54.9911 17.2545C55.4605 16.7745 55.6951 16.1559 55.6951 15.3985C55.6951 14.6625 55.4605 14.0492 54.9911 13.5585C54.5325 13.0785 53.9405 12.8385 53.2151 12.8385C52.4898 12.8385 51.8978 13.0785 51.4391 13.5585ZM60.3488 13.0785H57.7088V11.7985H64.2688V13.0785H61.6288V18.9985H60.3488V13.0785ZM66.0516 13.3185L65.7156 12.2945C66.4303 11.8572 67.2303 11.6385 68.1156 11.6385C69.0863 11.6385 69.7903 11.8785 70.2276 12.3585C70.665 12.8385 70.8836 13.5799 70.8836 14.5825V18.9985H69.6676V18.0705C69.1023 18.7639 68.3343 19.1105 67.3636 19.1105C66.7023 19.1105 66.169 18.9132 65.7636 18.5185C65.3583 18.1132 65.1556 17.5692 65.1556 16.8865C65.1556 16.1825 65.4063 15.6279 65.9076 15.2225C66.409 14.8065 67.065 14.5985 67.8756 14.5985C68.633 14.5985 69.2303 14.7532 69.6676 15.0625C69.6676 14.2519 69.5556 13.6705 69.3316 13.3185C69.1076 12.9665 68.6756 12.7905 68.0356 12.7905C67.385 12.7905 66.7236 12.9665 66.0516 13.3185ZM67.8116 17.9585C68.5263 17.9585 69.145 17.6492 69.6676 17.0305V16.1185C69.2196 15.7985 68.681 15.6385 68.0516 15.6385C67.6143 15.6385 67.2463 15.7452 66.9476 15.9585C66.6596 16.1612 66.5156 16.4492 66.5156 16.8225C66.5156 17.1745 66.6276 17.4519 66.8516 17.6545C67.0863 17.8572 67.4063 17.9585 67.8116 17.9585ZM79.587 18.9985H78.307V15.9585H74.307V18.9985H73.027V11.7985H74.307V14.7585H78.307V11.7985H79.587V18.9985ZM82.478 18.1025C81.774 17.3772 81.422 16.4759 81.422 15.3985C81.422 14.3105 81.774 13.4145 82.478 12.7105C83.1927 11.9959 84.1207 11.6385 85.262 11.6385C86.4033 11.6385 87.326 11.9959 88.03 12.7105C88.7447 13.4145 89.102 14.3105 89.102 15.3985C89.102 16.4865 88.7447 17.3879 88.03 18.1025C87.326 18.8065 86.4033 19.1585 85.262 19.1585C84.1313 19.1585 83.2033 18.8065 82.478 18.1025ZM83.486 13.5585C83.0167 14.0279 82.782 14.6412 82.782 15.3985C82.782 16.1559 83.0113 16.7692 83.47 17.2385C83.9393 17.7185 84.5367 17.9585 85.262 17.9585C85.9873 17.9585 86.5793 17.7239 87.038 17.2545C87.5073 16.7745 87.742 16.1559 87.742 15.3985C87.742 14.6625 87.5073 14.0492 87.038 13.5585C86.5793 13.0785 85.9873 12.8385 85.262 12.8385C84.5367 12.8385 83.9447 13.0785 83.486 13.5585Z" fill="#A4A7B1"/>
<path d="M152.52 14.8068V18.9988H150.552V7.79878C151.107 7.79878 151.709 7.79345 152.36 7.78278C153.011 7.77211 153.544 7.76678 153.96 7.76678C156.669 7.76678 158.024 8.91878 158.024 11.2228C158.024 12.0761 157.805 12.7801 157.368 13.3348C156.931 13.8681 156.429 14.2308 155.864 14.4228L159.368 18.9988H156.984L153.896 14.8068H152.52ZM153.864 9.60678C153.811 9.60678 153.725 9.61211 153.608 9.62278C153.491 9.62278 153.325 9.62811 153.112 9.63878C152.899 9.63878 152.701 9.63878 152.52 9.63878V12.9668H153.8C154.429 12.9668 154.941 12.8121 155.336 12.5028C155.741 12.1934 155.944 11.7721 155.944 11.2388C155.944 10.1508 155.251 9.60678 153.864 9.60678ZM165.547 16.9828L166.075 18.2788C165.36 18.8761 164.443 19.1748 163.323 19.1748C162.171 19.1748 161.232 18.8281 160.507 18.1348C159.803 17.4521 159.451 16.5401 159.451 15.3988C159.451 14.3321 159.798 13.4361 160.491 12.7108C161.184 11.9854 162.107 11.6228 163.259 11.6228C164.208 11.6228 165.014 11.9374 165.675 12.5668C166.336 13.1961 166.667 13.9961 166.667 14.9668C166.667 15.3934 166.63 15.7241 166.555 15.9588H161.355C161.43 16.4814 161.659 16.8921 162.043 17.1908C162.438 17.4894 162.928 17.6388 163.515 17.6388C164.315 17.6388 164.992 17.4201 165.547 16.9828ZM163.179 13.1588C162.134 13.1588 161.504 13.6814 161.291 14.7268H164.827C164.838 14.2681 164.688 13.8948 164.379 13.6068C164.08 13.3081 163.68 13.1588 163.179 13.1588ZM175.014 22.1988H173.174V18.6308C172.619 18.9934 172.027 19.1748 171.398 19.1748C170.257 19.1748 169.345 18.8334 168.662 18.1508C167.99 17.4574 167.654 16.5401 167.654 15.3988C167.654 14.3214 168.043 13.4254 168.822 12.7108C169.611 11.9854 170.598 11.6228 171.782 11.6228C173.019 11.6228 174.097 11.9108 175.014 12.4868V22.1988ZM171.638 17.4628C172.257 17.4628 172.769 17.2441 173.174 16.8068V13.7028C172.694 13.4681 172.225 13.3508 171.766 13.3508C171.105 13.3508 170.582 13.5534 170.198 13.9588C169.814 14.3534 169.622 14.8601 169.622 15.4788C169.622 16.0548 169.803 16.5294 170.166 16.9028C170.539 17.2761 171.03 17.4628 171.638 17.4628ZM181.712 11.7988H183.552V18.9988H181.712V18.1188C181.136 18.8228 180.368 19.1748 179.408 19.1748C178.64 19.1748 178.026 18.9188 177.568 18.4068C177.109 17.8948 176.88 17.1588 176.88 16.1988V11.7988H178.72V15.8148C178.72 16.9134 179.178 17.4628 180.096 17.4628C180.725 17.4628 181.264 17.1694 181.712 16.5828V11.7988ZM191.25 16.9828L191.778 18.2788C191.063 18.8761 190.146 19.1748 189.026 19.1748C187.874 19.1748 186.935 18.8281 186.21 18.1348C185.506 17.4521 185.154 16.5401 185.154 15.3988C185.154 14.3321 185.501 13.4361 186.194 12.7108C186.887 11.9854 187.81 11.6228 188.962 11.6228C189.911 11.6228 190.717 11.9374 191.378 12.5668C192.039 13.1961 192.37 13.9961 192.37 14.9668C192.37 15.3934 192.333 15.7241 192.258 15.9588H187.058C187.133 16.4814 187.362 16.8921 187.746 17.1908C188.141 17.4894 188.631 17.6388 189.218 17.6388C190.018 17.6388 190.695 17.4201 191.25 16.9828ZM188.882 13.1588C187.837 13.1588 187.207 13.6814 186.994 14.7268H190.53C190.541 14.2681 190.391 13.8948 190.082 13.6068C189.783 13.3081 189.383 13.1588 188.882 13.1588ZM193.612 13.8148C193.612 13.1428 193.857 12.6094 194.348 12.2148C194.839 11.8201 195.473 11.6228 196.252 11.6228C197.425 11.6228 198.337 11.9268 198.988 12.5348L198.3 13.8468C197.713 13.3881 197.063 13.1588 196.348 13.1588C196.092 13.1588 195.879 13.2228 195.708 13.3508C195.537 13.4681 195.452 13.6121 195.452 13.7828C195.452 14.1348 195.905 14.4281 196.812 14.6628C197.143 14.7374 197.436 14.8228 197.692 14.9188C197.948 15.0041 198.209 15.1321 198.476 15.3028C198.753 15.4628 198.967 15.6761 199.116 15.9428C199.265 16.2094 199.34 16.5188 199.34 16.8708C199.34 17.5748 199.073 18.1348 198.54 18.5508C198.017 18.9668 197.313 19.1748 196.428 19.1748C195.799 19.1748 195.185 19.0414 194.588 18.7748C193.98 18.4974 193.591 18.2201 193.42 17.9428L194.316 16.7428C194.519 16.9881 194.855 17.1961 195.324 17.3668C195.804 17.5481 196.215 17.6388 196.556 17.6388C196.972 17.6814 197.265 17.5481 197.436 17.2388C197.607 16.9188 197.495 16.6574 197.1 16.4548C196.94 16.3694 196.689 16.2788 196.348 16.1828C196.017 16.0868 195.708 15.9908 195.42 15.8948C195.143 15.7881 194.855 15.6548 194.556 15.4948C194.268 15.3348 194.039 15.1161 193.868 14.8388C193.697 14.5508 193.612 14.2094 193.612 13.8148ZM200.802 16.2628V9.79878H202.642V11.7988H204.962V13.5268H202.642V16.1508C202.642 17.0148 202.93 17.4468 203.506 17.4468C203.868 17.4468 204.236 17.3081 204.61 17.0308L205.17 18.4548C204.583 18.9241 203.874 19.1588 203.042 19.1588C202.263 19.1588 201.692 18.9241 201.33 18.4548C200.978 17.9748 200.802 17.2441 200.802 16.2628ZM211.217 18.9988H211.073V7.79878H211.249C211.708 7.79878 212.134 7.79345 212.529 7.78278C213.318 7.76145 213.788 7.75078 213.937 7.75078C215.014 7.75078 215.964 7.90011 216.785 8.19878C217.617 8.48678 218.278 8.89211 218.769 9.41478C219.26 9.92678 219.622 10.5081 219.857 11.1588C220.102 11.7988 220.225 12.4921 220.225 13.2388C220.225 14.9241 219.665 16.3108 218.545 17.3988C217.436 18.4868 215.857 19.0308 213.809 19.0308C213.35 19.0308 212.929 19.0254 212.545 19.0148C212.161 19.0041 211.718 18.9988 211.217 18.9988ZM213.905 8.58278C213.67 8.58278 213.324 8.59345 212.865 8.61478C212.417 8.62545 212.113 8.63078 211.953 8.63078V18.1668C212.305 18.1668 212.636 18.1721 212.945 18.1828C213.254 18.1828 213.478 18.1881 213.617 18.1988C213.756 18.1988 213.83 18.1988 213.841 18.1988C215.58 18.1988 216.924 17.7401 217.873 16.8228C218.822 15.8948 219.297 14.7001 219.297 13.2388C219.297 11.8628 218.844 10.7428 217.937 9.87878C217.02 9.01478 215.676 8.58278 213.905 8.58278ZM227.976 17.4788L228.248 18.1188C227.597 18.8014 226.712 19.1428 225.592 19.1428C224.44 19.1428 223.517 18.8014 222.824 18.1188C222.12 17.4361 221.768 16.5294 221.768 15.3988C221.768 14.3108 222.088 13.4148 222.728 12.7108C223.378 12.0068 224.274 11.6548 225.416 11.6548C226.344 11.6548 227.122 11.9534 227.752 12.5508C228.37 13.1374 228.68 13.9214 228.68 14.9028C228.68 15.1588 228.664 15.3828 228.632 15.5748H222.696C222.728 16.4388 223.01 17.1214 223.544 17.6228C224.077 18.1134 224.776 18.3588 225.64 18.3588C226.642 18.3588 227.421 18.0654 227.976 17.4788ZM225.336 12.4388C224.568 12.4388 223.944 12.6628 223.464 13.1108C222.994 13.5588 222.722 14.1508 222.648 14.8868H227.832C227.821 14.1294 227.592 13.5321 227.144 13.0948C226.696 12.6574 226.093 12.4388 225.336 12.4388ZM234.398 17.1108C234.398 16.7801 234.26 16.5134 233.982 16.3108C233.716 16.1081 233.385 15.9481 232.99 15.8308C232.606 15.7134 232.217 15.5854 231.822 15.4468C231.428 15.2974 231.092 15.0681 230.814 14.7588C230.548 14.4388 230.414 14.0388 230.414 13.5588C230.414 12.9828 230.628 12.5241 231.054 12.1828C231.481 11.8308 232.041 11.6548 232.734 11.6548C233.726 11.6548 234.478 11.9214 234.99 12.4548L234.638 13.0788C234.148 12.6201 233.518 12.3908 232.75 12.3908C232.324 12.3908 231.972 12.5028 231.694 12.7268C231.428 12.9401 231.294 13.2121 231.294 13.5428C231.294 13.8841 231.428 14.1668 231.694 14.3908C231.972 14.6041 232.302 14.7748 232.686 14.9028C233.081 15.0201 233.476 15.1481 233.87 15.2868C234.265 15.4254 234.596 15.6441 234.862 15.9428C235.14 16.2414 235.278 16.6201 235.278 17.0788C235.278 17.7294 235.033 18.2361 234.542 18.5988C234.062 18.9614 233.444 19.1428 232.686 19.1428C232.217 19.1428 231.726 19.0361 231.214 18.8228C230.734 18.6201 230.404 18.3801 230.222 18.1028L230.686 17.5588C230.889 17.8041 231.193 18.0068 231.598 18.1668C232.014 18.3268 232.409 18.4068 232.782 18.4068C233.252 18.4068 233.636 18.2948 233.934 18.0708C234.244 17.8361 234.398 17.5161 234.398 17.1108ZM238.59 18.9988H237.758V11.7988H238.59V18.9988ZM237.614 8.99878C237.614 8.83878 237.672 8.71078 237.79 8.61478C237.907 8.51878 238.046 8.47078 238.206 8.47078C238.344 8.47078 238.467 8.52411 238.574 8.63078C238.691 8.72678 238.75 8.84945 238.75 8.99878C238.75 9.18011 238.696 9.32411 238.59 9.43078C238.494 9.53745 238.366 9.59078 238.206 9.59078C238.035 9.59078 237.891 9.53745 237.774 9.43078C237.667 9.32411 237.614 9.18011 237.614 8.99878ZM240.49 20.0548C240.49 19.5108 240.682 19.0521 241.066 18.6788C241.45 18.3054 241.994 18.0441 242.698 17.8948C242.538 17.7028 242.458 17.4734 242.458 17.2068C242.458 16.9401 242.548 16.7001 242.73 16.4868C242.26 16.2841 241.892 15.9801 241.626 15.5748C241.359 15.1694 241.226 14.7108 241.226 14.1988C241.226 13.4628 241.487 12.8548 242.01 12.3748C242.532 11.8948 243.22 11.6548 244.074 11.6548C244.756 11.6548 245.359 11.8361 245.882 12.1988H245.898L247.946 11.6548V12.4388L246.49 12.8068C246.778 13.2441 246.922 13.7081 246.922 14.1988C246.922 14.9134 246.655 15.5214 246.122 16.0228C245.588 16.5028 244.906 16.7428 244.074 16.7428C243.775 16.7428 243.535 16.7214 243.354 16.6788C243.258 16.8174 243.21 16.9934 243.21 17.2068C243.21 17.4521 243.279 17.6441 243.418 17.7828C243.823 17.7614 244.047 17.7508 244.09 17.7508C245.188 17.7508 246.063 17.9534 246.714 18.3588C247.364 18.7641 247.69 19.3294 247.69 20.0548C247.69 20.7694 247.364 21.3241 246.714 21.7188C246.063 22.1241 245.188 22.3268 244.09 22.3268C242.98 22.3268 242.1 22.1294 241.45 21.7348C240.81 21.3401 240.49 20.7801 240.49 20.0548ZM241.338 20.0548C241.338 20.5241 241.583 20.8921 242.074 21.1588C242.575 21.4361 243.247 21.5748 244.09 21.5748C244.922 21.5748 245.588 21.4361 246.09 21.1588C246.591 20.8814 246.842 20.5134 246.842 20.0548C246.842 19.5854 246.591 19.2121 246.09 18.9348C245.599 18.6468 244.932 18.5028 244.09 18.5028C243.258 18.5028 242.591 18.6414 242.09 18.9188C241.588 19.1961 241.338 19.5748 241.338 20.0548ZM242.634 12.9188C242.26 13.2601 242.074 13.6868 242.074 14.1988C242.074 14.7108 242.26 15.1374 242.634 15.4788C243.007 15.8201 243.487 15.9908 244.074 15.9908C244.66 15.9908 245.14 15.8201 245.514 15.4788C245.887 15.1374 246.074 14.7108 246.074 14.1988C246.074 13.6868 245.882 13.2601 245.498 12.9188C245.124 12.5774 244.65 12.4068 244.074 12.4068C243.508 12.4068 243.028 12.5774 242.634 12.9188ZM250.205 18.9988H249.373V11.7988H250.205V12.8068C250.504 12.4761 250.888 12.2041 251.357 11.9908C251.837 11.7774 252.317 11.6708 252.797 11.6708C253.8 11.6708 254.552 11.9321 255.053 12.4548C255.555 12.9774 255.805 13.7881 255.805 14.8868V18.9988H254.973V15.0468C254.973 13.3188 254.184 12.4548 252.605 12.4548C252.147 12.4548 251.699 12.5614 251.261 12.7748C250.824 12.9774 250.472 13.2388 250.205 13.5588V18.9988Z" fill="#262525"/>
</svg>
